<?xml version="1.0" encoding="UTF-8"?>
<!DOCTYPE svg PUBLIC "-//W3C//DTD SVG 1.1//EN" "http://www.w3.org/Graphics/SVG/1.1/DTD/svg11.dtd">
<!-- Creator: CorelDRAW X7 -->
<svg xmlns="http://www.w3.org/2000/svg" xml:space="preserve" width="0.646728in" height="0.545476in" version="1.1" style="shape-rendering:geometricPrecision; text-rendering:geometricPrecision; image-rendering:optimizeQuality; fill-rule:evenodd; clip-rule:evenodd"
viewBox="0 0 172 145"
 xmlns:xlink="http://www.w3.org/1999/xlink">
 <defs>
  <style type="text/css">
   <![CDATA[
    .fil29 {fill:url(#id0)}
    .fil59 {fill:url(#id1)}
    .fil28 {fill:url(#id2)}
    .fil17 {fill:url(#id3)}
    .fil73 {fill:url(#id4)}
    .fil88 {fill:url(#id5)}
    .fil89 {fill:url(#id6)}
    .fil74 {fill:url(#id7)}
    .fil15 {fill:url(#id8)}
    .fil58 {fill:url(#id9)}
    .fil16 {fill:url(#id10)}
    .fil63 {fill:url(#id11)}
    .fil1 {fill:url(#id12)}
    .fil32 {fill:url(#id13)}
    .fil98 {fill:url(#id14)}
    .fil97 {fill:url(#id15)}
    .fil99 {fill:url(#id16)}
    .fil5 {fill:url(#id17)}
    .fil19 {fill:url(#id18)}
    .fil71 {fill:url(#id19)}
    .fil60 {fill:url(#id20)}
    .fil18 {fill:url(#id21)}
    .fil87 {fill:url(#id22)}
    .fil85 {fill:url(#id23)}
    .fil72 {fill:url(#id24)}
    .fil86 {fill:url(#id25)}
    .fil94 {fill:url(#id26)}
    .fil95 {fill:url(#id27)}
    .fil70 {fill:url(#id28)}
    .fil96 {fill:url(#id29)}
    .fil69 {fill:url(#id30)}
    .fil91 {fill:url(#id31)}
    .fil92 {fill:url(#id32)}
    .fil93 {fill:url(#id33)}
    .fil30 {fill:url(#id34)}
    .fil82 {fill:url(#id35)}
    .fil83 {fill:url(#id36)}
    .fil84 {fill:url(#id37)}
    .fil21 {fill:url(#id38)}
    .fil6 {fill:url(#id39)}
    .fil8 {fill:url(#id40)}
    .fil90 {fill:url(#id41)}
    .fil22 {fill:url(#id42)}
    .fil4 {fill:url(#id43)}
    .fil33 {fill:url(#id44)}
    .fil20 {fill:url(#id45)}
    .fil35 {fill:url(#id46)}
    .fil34 {fill:url(#id47)}
    .fil7 {fill:url(#id48)}
    .fil81 {fill:url(#id49)}
    .fil46 {fill:url(#id50)}
    .fil80 {fill:url(#id51)}
    .fil67 {fill:url(#id52)}
    .fil50 {fill:url(#id53)}
    .fil55 {fill:url(#id54)}
    .fil68 {fill:url(#id55)}
    .fil66 {fill:url(#id56)}
    .fil31 {fill:url(#id57)}
    .fil56 {fill:url(#id58)}
    .fil38 {fill:url(#id59)}
    .fil54 {fill:url(#id60)}
    .fil23 {fill:url(#id61)}
    .fil41 {fill:url(#id62)}
    .fil51 {fill:url(#id63)}
    .fil24 {fill:url(#id64)}
    .fil3 {fill:url(#id65)}
    .fil37 {fill:url(#id66)}
    .fil36 {fill:url(#id67)}
    .fil44 {fill:url(#id68)}
    .fil43 {fill:url(#id69)}
    .fil45 {fill:url(#id70)}
    .fil64 {fill:url(#id71)}
    .fil75 {fill:url(#id72)}
    .fil65 {fill:url(#id73)}
    .fil109 {fill:url(#id74)}
    .fil0 {fill:url(#id75)}
    .fil25 {fill:url(#id76)}
    .fil107 {fill:url(#id77)}
    .fil106 {fill:url(#id78)}
    .fil108 {fill:url(#id79)}
    .fil100 {fill:url(#id80)}
    .fil11 {fill:url(#id81)}
    .fil103 {fill:url(#id82)}
    .fil10 {fill:url(#id83)}
    .fil105 {fill:url(#id84)}
    .fil104 {fill:url(#id85)}
    .fil47 {fill:url(#id86)}
    .fil48 {fill:url(#id87)}
    .fil12 {fill:url(#id88)}
    .fil49 {fill:url(#id89)}
    .fil78 {fill:url(#id90)}
    .fil79 {fill:url(#id91)}
    .fil39 {fill:url(#id92)}
    .fil40 {fill:url(#id93)}
    .fil101 {fill:url(#id94)}
    .fil2 {fill:url(#id95)}
    .fil102 {fill:url(#id96)}
    .fil62 {fill:url(#id97)}
    .fil27 {fill:url(#id98)}
    .fil9 {fill:url(#id99)}
    .fil42 {fill:url(#id100)}
    .fil26 {fill:url(#id101)}
    .fil61 {fill:url(#id102)}
    .fil53 {fill:url(#id103)}
    .fil52 {fill:url(#id104)}
    .fil57 {fill:url(#id105)}
    .fil13 {fill:url(#id106)}
    .fil14 {fill:url(#id107)}
    .fil76 {fill:url(#id108)}
    .fil77 {fill:url(#id109)}
   ]]>
  </style>
  <linearGradient id="id0" gradientUnits="userSpaceOnUse" x1="21.3225" y1="135.756" x2="31.7791" y2="144.56">
   <stop offset="0" style="stop-opacity:1; stop-color:#3E4095"/>
   <stop offset="1" style="stop-opacity:1; stop-color:#FEFEFE"/>
  </linearGradient>
  <linearGradient id="id1" gradientUnits="userSpaceOnUse" xlink:href="#id0" x1="72.8929" y1="135.756" x2="83.3484" y2="144.56">
  </linearGradient>
  <linearGradient id="id2" gradientUnits="userSpaceOnUse" xlink:href="#id0" x1="21.7934" y1="122.226" x2="32.249" y2="131.03">
  </linearGradient>
  <linearGradient id="id3" gradientUnits="userSpaceOnUse" xlink:href="#id0" x1="0.563073" y1="108.694" x2="11.0197" y2="117.498">
  </linearGradient>
  <linearGradient id="id4" gradientUnits="userSpaceOnUse" xlink:href="#id0" x1="109.415" y1="54.5721" x2="119.872" y2="63.375">
  </linearGradient>
  <linearGradient id="id5" gradientUnits="userSpaceOnUse" xlink:href="#id0" x1="123.912" y1="122.226" x2="134.368" y2="131.03">
  </linearGradient>
  <linearGradient id="id6" gradientUnits="userSpaceOnUse" xlink:href="#id0" x1="123.441" y1="135.756" x2="133.897" y2="144.56">
  </linearGradient>
  <linearGradient id="id7" gradientUnits="userSpaceOnUse" xlink:href="#id0" x1="108.944" y1="68.1026" x2="119.401" y2="76.9066">
  </linearGradient>
  <linearGradient id="id8" gradientUnits="userSpaceOnUse" xlink:href="#id0" x1="1.50502" y1="81.6331" x2="11.9606" y2="90.4371">
  </linearGradient>
  <linearGradient id="id9" gradientUnits="userSpaceOnUse" xlink:href="#id0" x1="73.3628" y1="122.226" x2="83.8194" y2="131.03">
  </linearGradient>
  <linearGradient id="id10" gradientUnits="userSpaceOnUse" xlink:href="#id0" x1="1.03405" y1="95.1636" x2="11.4907" y2="103.968">
  </linearGradient>
  <linearGradient id="id11" gradientUnits="userSpaceOnUse" xlink:href="#id0" x1="92.5659" y1="54.5721" x2="103.021" y2="63.375">
  </linearGradient>
  <linearGradient id="id12" gradientUnits="userSpaceOnUse" xlink:href="#id0" x1="26.028" y1="0.448993" x2="36.4846" y2="9.25198">
  </linearGradient>
  <linearGradient id="id13" gradientUnits="userSpaceOnUse" xlink:href="#id0" x1="42.488" y1="41.0405" x2="52.9435" y2="49.8445">
  </linearGradient>
  <linearGradient id="id14" gradientUnits="userSpaceOnUse" xlink:href="#id0" x1="140.761" y1="122.226" x2="151.218" y2="131.03">
  </linearGradient>
  <linearGradient id="id15" gradientUnits="userSpaceOnUse" xlink:href="#id0" x1="141.232" y1="108.694" x2="151.689" y2="117.498">
  </linearGradient>
  <linearGradient id="id16" gradientUnits="userSpaceOnUse" xlink:href="#id0" x1="140.291" y1="135.756" x2="150.747" y2="144.56">
  </linearGradient>
  <linearGradient id="id17" gradientUnits="userSpaceOnUse" xlink:href="#id0" x1="94.4477" y1="0.448993" x2="104.904" y2="9.25198">
  </linearGradient>
  <linearGradient id="id18" gradientUnits="userSpaceOnUse" xlink:href="#id0" x1="-0.377824" y1="135.756" x2="10.0788" y2="144.56">
  </linearGradient>
  <linearGradient id="id19" gradientUnits="userSpaceOnUse" xlink:href="#id0" x1="110.356" y1="27.51" x2="120.813" y2="36.314">
  </linearGradient>
  <linearGradient id="id20" gradientUnits="userSpaceOnUse" xlink:href="#id0" x1="93.9778" y1="13.9795" x2="104.433" y2="22.7835">
  </linearGradient>
  <linearGradient id="id21" gradientUnits="userSpaceOnUse" xlink:href="#id0" x1="0.0931478" y1="122.226" x2="10.5487" y2="131.03">
  </linearGradient>
  <linearGradient id="id22" gradientUnits="userSpaceOnUse" xlink:href="#id0" x1="124.383" y1="108.694" x2="134.838" y2="117.498">
  </linearGradient>
  <linearGradient id="id23" gradientUnits="userSpaceOnUse" xlink:href="#id0" x1="125.324" y1="81.6331" x2="135.78" y2="90.4371">
  </linearGradient>
  <linearGradient id="id24" gradientUnits="userSpaceOnUse" xlink:href="#id0" x1="109.886" y1="41.0405" x2="120.342" y2="49.8445">
  </linearGradient>
  <linearGradient id="id25" gradientUnits="userSpaceOnUse" xlink:href="#id0" x1="124.853" y1="95.1636" x2="135.309" y2="103.968">
  </linearGradient>
  <linearGradient id="id26" gradientUnits="userSpaceOnUse" xlink:href="#id0" x1="142.644" y1="68.1026" x2="153.099" y2="76.9066">
  </linearGradient>
  <linearGradient id="id27" gradientUnits="userSpaceOnUse" xlink:href="#id0" x1="142.173" y1="81.6331" x2="152.629" y2="90.4371">
  </linearGradient>
  <linearGradient id="id28" gradientUnits="userSpaceOnUse" xlink:href="#id0" x1="110.827" y1="13.9795" x2="121.284" y2="22.7835">
  </linearGradient>
  <linearGradient id="id29" gradientUnits="userSpaceOnUse" xlink:href="#id0" x1="141.703" y1="95.1636" x2="152.159" y2="103.968">
  </linearGradient>
  <linearGradient id="id30" gradientUnits="userSpaceOnUse" xlink:href="#id0" x1="89.7422" y1="135.756" x2="100.198" y2="144.56">
  </linearGradient>
  <linearGradient id="id31" gradientUnits="userSpaceOnUse" xlink:href="#id0" x1="144.056" y1="27.51" x2="154.511" y2="36.314">
  </linearGradient>
  <linearGradient id="id32" gradientUnits="userSpaceOnUse" xlink:href="#id0" x1="143.585" y1="41.0405" x2="154.041" y2="49.8445">
  </linearGradient>
  <linearGradient id="id33" gradientUnits="userSpaceOnUse" xlink:href="#id0" x1="143.114" y1="54.5721" x2="153.57" y2="63.375">
  </linearGradient>
  <linearGradient id="id34" gradientUnits="userSpaceOnUse" xlink:href="#id0" x1="43.4289" y1="13.9795" x2="53.8844" y2="22.7835">
  </linearGradient>
  <linearGradient id="id35" gradientUnits="userSpaceOnUse" xlink:href="#id0" x1="126.735" y1="41.0405" x2="137.191" y2="49.8445">
  </linearGradient>
  <linearGradient id="id36" gradientUnits="userSpaceOnUse" xlink:href="#id0" x1="126.264" y1="54.5721" x2="136.721" y2="63.375">
  </linearGradient>
  <linearGradient id="id37" gradientUnits="userSpaceOnUse" xlink:href="#id0" x1="125.795" y1="68.1026" x2="136.25" y2="76.9066">
  </linearGradient>
  <linearGradient id="id38" gradientUnits="userSpaceOnUse" xlink:href="#id0" x1="25.0871" y1="27.51" x2="35.5437" y2="36.314">
  </linearGradient>
  <linearGradient id="id39" gradientUnits="userSpaceOnUse" xlink:href="#id0" x1="111.298" y1="0.448993" x2="121.754" y2="9.25198">
  </linearGradient>
  <linearGradient id="id40" gradientUnits="userSpaceOnUse" xlink:href="#id0" x1="144.997" y1="0.448993" x2="155.453" y2="9.25198">
  </linearGradient>
  <linearGradient id="id41" gradientUnits="userSpaceOnUse" xlink:href="#id0" x1="144.526" y1="13.9795" x2="154.982" y2="22.7835">
  </linearGradient>
  <linearGradient id="id42" gradientUnits="userSpaceOnUse" xlink:href="#id0" x1="24.6172" y1="41.0405" x2="35.0728" y2="49.8445">
  </linearGradient>
  <linearGradient id="id43" gradientUnits="userSpaceOnUse" xlink:href="#id0" x1="77.5984" y1="0.448993" x2="88.055" y2="9.25198">
  </linearGradient>
  <linearGradient id="id44" gradientUnits="userSpaceOnUse" xlink:href="#id0" x1="42.017" y1="54.5721" x2="52.4736" y2="63.375">
  </linearGradient>
  <linearGradient id="id45" gradientUnits="userSpaceOnUse" xlink:href="#id0" x1="25.5581" y1="13.9795" x2="36.0137" y2="22.7835">
  </linearGradient>
  <linearGradient id="id46" gradientUnits="userSpaceOnUse" xlink:href="#id0" x1="41.0761" y1="81.6331" x2="51.5317" y2="90.4371">
  </linearGradient>
  <linearGradient id="id47" gradientUnits="userSpaceOnUse" xlink:href="#id0" x1="41.546" y1="68.1026" x2="52.0026" y2="76.9066">
  </linearGradient>
  <linearGradient id="id48" gradientUnits="userSpaceOnUse" xlink:href="#id0" x1="128.147" y1="0.448993" x2="138.603" y2="9.25198">
  </linearGradient>
  <linearGradient id="id49" gradientUnits="userSpaceOnUse" xlink:href="#id0" x1="127.206" y1="27.51" x2="137.662" y2="36.314">
  </linearGradient>
  <linearGradient id="id50" gradientUnits="userSpaceOnUse" xlink:href="#id0" x1="57.4544" y1="95.1636" x2="67.911" y2="103.968">
  </linearGradient>
  <linearGradient id="id51" gradientUnits="userSpaceOnUse" xlink:href="#id0" x1="127.676" y1="13.9795" x2="138.133" y2="22.7835">
  </linearGradient>
  <linearGradient id="id52" gradientUnits="userSpaceOnUse" xlink:href="#id0" x1="90.6831" y1="108.694" x2="101.14" y2="117.498">
  </linearGradient>
  <linearGradient id="id53" gradientUnits="userSpaceOnUse" xlink:href="#id0" x1="77.1274" y1="13.9795" x2="87.5841" y2="22.7835">
  </linearGradient>
  <linearGradient id="id54" gradientUnits="userSpaceOnUse" xlink:href="#id0" x1="74.7747" y1="81.6331" x2="85.2313" y2="90.4371">
  </linearGradient>
  <linearGradient id="id55" gradientUnits="userSpaceOnUse" xlink:href="#id0" x1="90.2121" y1="122.226" x2="100.669" y2="131.03">
  </linearGradient>
  <linearGradient id="id56" gradientUnits="userSpaceOnUse" xlink:href="#id0" x1="91.154" y1="95.1636" x2="101.61" y2="103.968">
  </linearGradient>
  <linearGradient id="id57" gradientUnits="userSpaceOnUse" xlink:href="#id0" x1="42.9579" y1="27.51" x2="53.4145" y2="36.314">
  </linearGradient>
  <linearGradient id="id58" gradientUnits="userSpaceOnUse" xlink:href="#id0" x1="74.3037" y1="95.1636" x2="84.7603" y2="103.968">
  </linearGradient>
  <linearGradient id="id59" gradientUnits="userSpaceOnUse" xlink:href="#id0" x1="39.6642" y1="122.226" x2="50.1198" y2="131.029">
  </linearGradient>
  <linearGradient id="id60" gradientUnits="userSpaceOnUse" xlink:href="#id0" x1="75.2456" y1="68.1026" x2="85.7012" y2="76.9066">
  </linearGradient>
  <linearGradient id="id61" gradientUnits="userSpaceOnUse" xlink:href="#id0" x1="24.1462" y1="54.5721" x2="34.6028" y2="63.375">
  </linearGradient>
  <linearGradient id="id62" gradientUnits="userSpaceOnUse" xlink:href="#id0" x1="59.8072" y1="27.51" x2="70.2638" y2="36.314">
  </linearGradient>
  <linearGradient id="id63" gradientUnits="userSpaceOnUse" xlink:href="#id0" x1="76.6575" y1="27.51" x2="87.1131" y2="36.314">
  </linearGradient>
  <linearGradient id="id64" gradientUnits="userSpaceOnUse" xlink:href="#id0" x1="23.6752" y1="68.1026" x2="34.1319" y2="76.9066">
  </linearGradient>
  <linearGradient id="id65" gradientUnits="userSpaceOnUse" xlink:href="#id0" x1="60.7491" y1="0.448993" x2="71.2047" y2="9.25198">
  </linearGradient>
  <linearGradient id="id66" gradientUnits="userSpaceOnUse" xlink:href="#id0" x1="40.1341" y1="108.694" x2="50.5908" y2="117.498">
  </linearGradient>
  <linearGradient id="id67" gradientUnits="userSpaceOnUse" xlink:href="#id0" x1="40.6051" y1="95.1636" x2="51.0617" y2="103.968">
  </linearGradient>
  <linearGradient id="id68" gradientUnits="userSpaceOnUse" xlink:href="#id0" x1="58.3963" y1="68.1026" x2="68.8519" y2="76.9066">
  </linearGradient>
  <linearGradient id="id69" gradientUnits="userSpaceOnUse" xlink:href="#id0" x1="58.8663" y1="54.5721" x2="69.3229" y2="63.375">
  </linearGradient>
  <linearGradient id="id70" gradientUnits="userSpaceOnUse" xlink:href="#id0" x1="57.9254" y1="81.6331" x2="68.381" y2="90.4371">
  </linearGradient>
  <linearGradient id="id71" gradientUnits="userSpaceOnUse" xlink:href="#id0" x1="92.0949" y1="68.1026" x2="102.552" y2="76.9066">
  </linearGradient>
  <linearGradient id="id72" gradientUnits="userSpaceOnUse" xlink:href="#id0" x1="108.474" y1="81.6331" x2="118.93" y2="90.4371">
  </linearGradient>
  <linearGradient id="id73" gradientUnits="userSpaceOnUse" xlink:href="#id0" x1="91.6239" y1="81.6331" x2="102.081" y2="90.4371">
  </linearGradient>
  <linearGradient id="id74" gradientUnits="userSpaceOnUse" xlink:href="#id0" x1="157.14" y1="135.756" x2="167.597" y2="144.56">
  </linearGradient>
  <linearGradient id="id75" gradientUnits="userSpaceOnUse" xlink:href="#id0" x1="4.32876" y1="0.448993" x2="14.7843" y2="9.25198">
  </linearGradient>
  <linearGradient id="id76" gradientUnits="userSpaceOnUse" xlink:href="#id0" x1="23.2053" y1="81.6331" x2="33.6609" y2="90.4371">
  </linearGradient>
  <linearGradient id="id77" gradientUnits="userSpaceOnUse" xlink:href="#id0" x1="158.081" y1="108.694" x2="168.538" y2="117.498">
  </linearGradient>
  <linearGradient id="id78" gradientUnits="userSpaceOnUse" xlink:href="#id0" x1="158.552" y1="95.1636" x2="169.008" y2="103.968">
  </linearGradient>
  <linearGradient id="id79" gradientUnits="userSpaceOnUse" xlink:href="#id0" x1="157.611" y1="122.226" x2="168.067" y2="131.03">
  </linearGradient>
  <linearGradient id="id80" gradientUnits="userSpaceOnUse" xlink:href="#id0" x1="161.376" y1="13.9795" x2="171.832" y2="22.7825">
  </linearGradient>
  <linearGradient id="id81" gradientUnits="userSpaceOnUse" xlink:href="#id0" x1="3.38681" y1="27.51" x2="13.8434" y2="36.314">
  </linearGradient>
  <linearGradient id="id82" gradientUnits="userSpaceOnUse" xlink:href="#id0" x1="159.964" y1="54.5721" x2="170.42" y2="63.375">
  </linearGradient>
  <linearGradient id="id83" gradientUnits="userSpaceOnUse" xlink:href="#id0" x1="3.85778" y1="13.9795" x2="14.3144" y2="22.7835">
  </linearGradient>
  <linearGradient id="id84" gradientUnits="userSpaceOnUse" xlink:href="#id0" x1="159.022" y1="81.6331" x2="169.479" y2="90.4371">
  </linearGradient>
  <linearGradient id="id85" gradientUnits="userSpaceOnUse" xlink:href="#id0" x1="159.493" y1="68.1026" x2="169.95" y2="76.9066">
  </linearGradient>
  <linearGradient id="id86" gradientUnits="userSpaceOnUse" xlink:href="#id0" x1="56.9845" y1="108.694" x2="67.4401" y2="117.498">
  </linearGradient>
  <linearGradient id="id87" gradientUnits="userSpaceOnUse" xlink:href="#id0" x1="56.5135" y1="122.226" x2="66.9701" y2="131.03">
  </linearGradient>
  <linearGradient id="id88" gradientUnits="userSpaceOnUse" xlink:href="#id0" x1="2.91689" y1="41.0405" x2="13.3725" y2="49.8445">
  </linearGradient>
  <linearGradient id="id89" gradientUnits="userSpaceOnUse" xlink:href="#id0" x1="56.0425" y1="135.756" x2="66.4992" y2="144.56">
  </linearGradient>
  <linearGradient id="id90" gradientUnits="userSpaceOnUse" xlink:href="#id0" x1="107.062" y1="122.226" x2="117.518" y2="131.03">
  </linearGradient>
  <linearGradient id="id91" gradientUnits="userSpaceOnUse" xlink:href="#id0" x1="106.591" y1="135.756" x2="117.048" y2="144.56">
  </linearGradient>
  <linearGradient id="id92" gradientUnits="userSpaceOnUse" xlink:href="#id0" x1="39.1932" y1="135.756" x2="49.6499" y2="144.56">
  </linearGradient>
  <linearGradient id="id93" gradientUnits="userSpaceOnUse" xlink:href="#id0" x1="60.2781" y1="13.9795" x2="70.7348" y2="22.7835">
  </linearGradient>
  <linearGradient id="id94" gradientUnits="userSpaceOnUse" xlink:href="#id0" x1="160.905" y1="27.51" x2="171.362" y2="36.314">
  </linearGradient>
  <linearGradient id="id95" gradientUnits="userSpaceOnUse" xlink:href="#id0" x1="43.8988" y1="0.448993" x2="54.3554" y2="9.25198">
  </linearGradient>
  <linearGradient id="id96" gradientUnits="userSpaceOnUse" xlink:href="#id0" x1="160.434" y1="41.0405" x2="170.891" y2="49.8445">
  </linearGradient>
  <linearGradient id="id97" gradientUnits="userSpaceOnUse" xlink:href="#id0" x1="93.0358" y1="41.0405" x2="103.492" y2="49.8445">
  </linearGradient>
  <linearGradient id="id98" gradientUnits="userSpaceOnUse" xlink:href="#id0" x1="22.2634" y1="108.694" x2="32.72" y2="117.498">
  </linearGradient>
  <linearGradient id="id99" gradientUnits="userSpaceOnUse" xlink:href="#id0" x1="161.846" y1="0.448993" x2="172.303" y2="9.25198">
  </linearGradient>
  <linearGradient id="id100" gradientUnits="userSpaceOnUse" xlink:href="#id0" x1="59.3372" y1="41.0405" x2="69.7928" y2="49.8445">
  </linearGradient>
  <linearGradient id="id101" gradientUnits="userSpaceOnUse" xlink:href="#id0" x1="22.7343" y1="95.1636" x2="33.191" y2="103.968">
  </linearGradient>
  <linearGradient id="id102" gradientUnits="userSpaceOnUse" xlink:href="#id0" x1="93.5068" y1="27.51" x2="103.963" y2="36.314">
  </linearGradient>
  <linearGradient id="id103" gradientUnits="userSpaceOnUse" xlink:href="#id0" x1="75.7156" y1="54.5721" x2="86.1722" y2="63.375">
  </linearGradient>
  <linearGradient id="id104" gradientUnits="userSpaceOnUse" xlink:href="#id0" x1="76.1865" y1="41.0405" x2="86.6432" y2="49.8445">
  </linearGradient>
  <linearGradient id="id105" gradientUnits="userSpaceOnUse" xlink:href="#id0" x1="73.8338" y1="108.694" x2="84.2893" y2="117.498">
  </linearGradient>
  <linearGradient id="id106" gradientUnits="userSpaceOnUse" xlink:href="#id0" x1="2.44591" y1="54.5721" x2="12.9025" y2="63.375">
  </linearGradient>
  <linearGradient id="id107" gradientUnits="userSpaceOnUse" xlink:href="#id0" x1="1.97494" y1="68.1026" x2="12.4316" y2="76.9066">
  </linearGradient>
  <linearGradient id="id108" gradientUnits="userSpaceOnUse" xlink:href="#id0" x1="108.003" y1="95.1636" x2="118.46" y2="103.968">
  </linearGradient>
  <linearGradient id="id109" gradientUnits="userSpaceOnUse" xlink:href="#id0" x1="107.532" y1="108.694" x2="117.989" y2="117.498">
  </linearGradient>
 </defs>
 <g id="Layer_x0020_1">
  <metadata id="CorelCorpID_0Corel-Layer"/>
  <g id="_377358488">
   <circle class="fil0" cx="10" cy="5" r="5"/>
   <circle class="fil1" cx="31" cy="5" r="5"/>
   <circle class="fil2" cx="49" cy="5" r="5"/>
   <circle class="fil3" cx="66" cy="5" r="5"/>
   <circle class="fil4" cx="83" cy="5" r="5"/>
   <circle class="fil5" cx="100" cy="5" r="5"/>
   <circle class="fil6" cx="117" cy="5" r="5"/>
   <circle class="fil7" cx="133" cy="5" r="5"/>
   <circle class="fil8" cx="150" cy="5" r="5"/>
   <circle class="fil9" cx="167" cy="5" r="5"/>
   <circle class="fil10" cx="9" cy="18" r="5"/>
   <circle class="fil11" cx="9" cy="32" r="5"/>
   <circle class="fil12" cx="8" cy="45" r="5"/>
   <circle class="fil13" cx="8" cy="59" r="5"/>
   <circle class="fil14" cx="7" cy="73" r="5"/>
   <circle class="fil15" cx="7" cy="86" r="5"/>
   <circle class="fil16" cx="6" cy="100" r="5"/>
   <circle class="fil17" cx="6" cy="113" r="5"/>
   <circle class="fil18" cx="5" cy="127" r="5"/>
   <circle class="fil19" cx="5" cy="140" r="5"/>
   <circle class="fil20" cx="31" cy="18" r="5"/>
   <circle class="fil21" cx="30" cy="32" r="5"/>
   <circle class="fil22" cx="30" cy="45" r="5"/>
   <circle class="fil23" cx="29" cy="59" r="5"/>
   <circle class="fil24" cx="29" cy="73" r="5"/>
   <circle class="fil25" cx="28" cy="86" r="5"/>
   <circle class="fil26" cx="28" cy="100" r="5"/>
   <circle class="fil27" cx="27" cy="113" r="5"/>
   <circle class="fil28" cx="27" cy="127" r="5"/>
   <circle class="fil29" cx="27" cy="140" r="5"/>
   <circle class="fil30" cx="49" cy="18" r="5"/>
   <circle class="fil31" cx="48" cy="32" r="5"/>
   <circle class="fil32" cx="48" cy="45" r="5"/>
   <circle class="fil33" cx="47" cy="59" r="5"/>
   <circle class="fil34" cx="47" cy="73" r="5"/>
   <circle class="fil35" cx="46" cy="86" r="5"/>
   <circle class="fil36" cx="46" cy="100" r="5"/>
   <circle class="fil37" cx="45" cy="113" r="5"/>
   <circle class="fil38" cx="45" cy="127" r="5"/>
   <circle class="fil39" cx="44" cy="140" r="5"/>
   <circle class="fil40" cx="66" cy="18" r="5"/>
   <circle class="fil41" cx="65" cy="32" r="5"/>
   <circle class="fil42" cx="65" cy="45" r="5"/>
   <circle class="fil43" cx="64" cy="59" r="5"/>
   <circle class="fil44" cx="64" cy="73" r="5"/>
   <circle class="fil45" cx="63" cy="86" r="5"/>
   <circle class="fil46" cx="63" cy="100" r="5"/>
   <circle class="fil47" cx="62" cy="113" r="5"/>
   <circle class="fil48" cx="62" cy="127" r="5"/>
   <circle class="fil49" cx="61" cy="140" r="5"/>
   <circle class="fil50" cx="82" cy="18" r="5"/>
   <circle class="fil51" cx="82" cy="32" r="5"/>
   <circle class="fil52" cx="81" cy="45" r="5"/>
   <circle class="fil53" cx="81" cy="59" r="5"/>
   <circle class="fil54" cx="80" cy="73" r="5"/>
   <circle class="fil55" cx="80" cy="86" r="5"/>
   <circle class="fil56" cx="80" cy="100" r="5"/>
   <circle class="fil57" cx="79" cy="113" r="5"/>
   <circle class="fil58" cx="79" cy="127" r="5"/>
   <circle class="fil59" cx="78" cy="140" r="5"/>
   <circle class="fil60" cx="99" cy="18" r="5"/>
   <circle class="fil61" cx="99" cy="32" r="5"/>
   <circle class="fil62" cx="98" cy="45" r="5"/>
   <circle class="fil63" cx="98" cy="59" r="5"/>
   <circle class="fil64" cx="97" cy="73" r="5"/>
   <circle class="fil65" cx="97" cy="86" r="5"/>
   <circle class="fil66" cx="96" cy="100" r="5"/>
   <circle class="fil67" cx="96" cy="113" r="5"/>
   <circle class="fil68" cx="95" cy="127" r="5"/>
   <circle class="fil69" cx="95" cy="140" r="5"/>
   <circle class="fil70" cx="116" cy="18" r="5"/>
   <circle class="fil71" cx="116" cy="32" r="5"/>
   <circle class="fil72" cx="115" cy="45" r="5"/>
   <circle class="fil73" cx="115" cy="59" r="5"/>
   <circle class="fil74" cx="114" cy="73" r="5"/>
   <circle class="fil75" cx="114" cy="86" r="5"/>
   <circle class="fil76" cx="113" cy="100" r="5"/>
   <circle class="fil77" cx="113" cy="113" r="5"/>
   <circle class="fil78" cx="112" cy="127" r="5"/>
   <circle class="fil79" cx="112" cy="140" r="5"/>
   <circle class="fil80" cx="133" cy="18" r="5"/>
   <circle class="fil81" cx="132" cy="32" r="5"/>
   <circle class="fil82" cx="132" cy="45" r="5"/>
   <circle class="fil83" cx="131" cy="59" r="5"/>
   <circle class="fil84" cx="131" cy="73" r="5"/>
   <circle class="fil85" cx="131" cy="86" r="5"/>
   <circle class="fil86" cx="130" cy="100" r="5"/>
   <circle class="fil87" cx="130" cy="113" r="5"/>
   <circle class="fil88" cx="129" cy="127" r="5"/>
   <circle class="fil89" cx="129" cy="140" r="5"/>
   <circle class="fil90" cx="150" cy="18" r="5"/>
   <circle class="fil91" cx="149" cy="32" r="5"/>
   <circle class="fil92" cx="149" cy="45" r="5"/>
   <circle class="fil93" cx="148" cy="59" r="5"/>
   <circle class="fil94" cx="148" cy="73" r="5"/>
   <circle class="fil95" cx="147" cy="86" r="5"/>
   <circle class="fil96" cx="147" cy="100" r="5"/>
   <circle class="fil97" cx="146" cy="113" r="5"/>
   <circle class="fil98" cx="146" cy="127" r="5"/>
   <circle class="fil99" cx="146" cy="140" r="5"/>
   <circle class="fil100" cx="167" cy="18" r="5"/>
   <circle class="fil101" cx="166" cy="32" r="5"/>
   <circle class="fil102" cx="166" cy="45" r="5"/>
   <circle class="fil103" cx="165" cy="59" r="5"/>
   <circle class="fil104" cx="165" cy="73" r="5"/>
   <circle class="fil105" cx="164" cy="86" r="5"/>
   <circle class="fil106" cx="164" cy="100" r="5"/>
   <circle class="fil107" cx="163" cy="113" r="5"/>
   <circle class="fil108" cx="163" cy="127" r="5"/>
   <circle class="fil109" cx="162" cy="140" r="5"/>
  </g>
 </g>
</svg>
